<?xml version="1.0" encoding="utf-8"?>
<svg id="master-artboard" viewBox="0 0 385.9757995605469 348.07196044921875" version="1.1" xmlns="http://www.w3.org/2000/svg" x="0px" y="0px" style="enable-background:new 0 0 1400 980;" width="385.9757995605469px" height="348.07196044921875px"><rect id="ee-background" x="0" y="0" width="385.9757995605469" height="348.07196044921875" style="fill: white; fill-opacity: 0; pointer-events: none;"/>



<g transform="matrix(4.214825630187988, -0.08002757281064987, 0.08002757281064987, 4.214825630187988, -2228.415771484375, -1438.5407285690308)">
	<g>
		<path class="st2" d="M451.4,107.8l18.2-31.3c4.1-7,12.5-10.2,20.2-7.5l43.9,15.2c6.8,2.4,11.4,8.8,11.4,16v23.7&#10;&#9;&#9;&#9;c0,10.2-8.9,18.1-19,16.8l-62-7.5C451.9,131.7,445.3,118.3,451.4,107.8z" style="fill: rgb(133, 128, 122);"/>
		<path class="st4" d="M531.4,90.8l-43.9-15.2c-1.1-0.4-2.1-0.6-3.3-0.6c-3.5,0-6.8,1.9-8.6,5l-0.8,1.3c1.3,0.1,2.5,1.1,2,2.6&#10;&#9;&#9;&#9;c-0.8,2.4-1.1,5.2-2.5,7.4c-1.2,1.8-3.9,3.1-3.7,5.5c0.1,1.1-0.7,1.8-1.6,2c-0.9,1.5-2,3-2.1,4.7c-0.2,2.2-3,2.7-3.9,1.2&#10;&#9;&#9;&#9;c-0.6,0.5-1.3,0.6-2,0.4l-3.5,6.1c-1.7,2.9-1.8,6.4-0.3,9.4c1.5,3,4.3,5,7.7,5.4l30.3,3.7c0-0.7,0.2-1.4,1-1.9&#10;&#9;&#9;&#9;c1.9-1.2,3.6-1.3,5.8-1.5c0.8-0.1,1.4,0.4,1.8,1c0.8-0.4,1.9-0.3,2.5,0.4c0.2,0.3,0.4,0.5,0.6,0.8c1.9-0.2,3.7-0.6,5.6-1.1&#10;&#9;&#9;&#9;c0.5-0.1,1-0.1,1.4,0.1c0.8-1,1.4-2.1,2.1-3.1c1.2-1.8,3.9-1.1,4,1.1c0,1,0.1,1.8,0.3,2.7c0.9-0.2,1.8,0.1,2.3,0.9&#10;&#9;&#9;&#9;c1.2-0.8,2.6,0.2,3.1,1.3c0,0.1,0.1,0.2,0.1,0.3c0.9-0.3,1.8-0.8,2.5-1.8c0.9-1.1,2.8-0.7,3.4,0.4c0.7,0.3,1.4,0.7,2.1,1&#10;&#9;&#9;&#9;c0.7-0.4,1.3-0.3,1.9-0.1c1.5-1.8,2.5-4,2.5-6.6v-23.7C538.1,95.9,535.4,92.1,531.4,90.8z" style="fill: rgb(148, 142, 136);"/>
		<path class="st5" d="M528.1,143.3c-0.8,0-1.6,0-2.3-0.1l-62-7.5c-6.5-0.8-12.1-4.8-15.1-10.6c-2.9-5.9-2.7-12.8,0.6-18.4v0&#10;&#9;&#9;&#9;l18.2-31.3c4.7-8,14.4-11.7,23.2-8.6l43.9,15.2c7.8,2.7,13.1,10.1,13.1,18.4v23.7c0,5.6-2.4,10.9-6.6,14.6&#10;&#9;&#9;&#9;C537.4,141.6,532.8,143.3,528.1,143.3z M453.6,109.1c-2.4,4.2-2.6,9.3-0.4,13.7c2.2,4.4,6.4,7.3,11.2,7.9l62,7.5&#10;&#9;&#9;&#9;c4.1,0.5,8.2-0.8,11.3-3.5c3.1-2.7,4.9-6.7,4.9-10.8v-23.7c0-6.2-3.9-11.6-9.7-13.7L489,71.3c-6.5-2.3-13.8,0.4-17.2,6.4&#10;&#9;&#9;&#9;L453.6,109.1L453.6,109.1z" style="fill: rgb(35, 31, 32);"/>
	</g>
	<g>
		<path class="st2" d="M428.3,184.5l32.4-17c4.4-2.3,9.6-2.6,14.2-0.7l21.1,8.6c5.2,2.1,9.1,6.7,10.2,12.3l4.9,23.7&#10;&#9;&#9;&#9;c1.3,6.3-1.1,12.8-6.1,16.7l-29.5,23.3c-7.5,5.9-18.4,4.5-24.1-3.1l-29-38.6C416.3,201.3,419,189.3,428.3,184.5z" style="fill: rgb(133, 128, 122);"/>
		<path class="st4" d="M504.4,212.8l-1.4-6.9c-1.2,0.6-2.9,0-3.1-1.3c-0.3-0.1-0.6-0.1-0.9-0.2c-1.2-0.2-1.7-1.6-1.5-2.6&#10;&#9;&#9;&#9;c0.1-0.8,0.3-1.5,0.4-2.3c-0.9-0.4-1.6-1.4-1.2-2.5c0.1-0.3,0.2-0.7,0.4-1c-0.2,0-0.3,0.1-0.5,0.1c-1.8,0.5-3.4-1.6-2.4-3.2&#10;&#9;&#9;&#9;c0.5-0.8,1.1-1.6,1.6-2.4c-0.3-0.3-0.4-0.8-0.4-1.2c0-1.4,0.2-2.5,0.6-3.8c0.2-0.6,0.6-1,1-1.2c-1-1-2.1-1.9-3.5-2.4l-21.1-8.6&#10;&#9;&#9;&#9;c-1.2-0.5-2.5-0.7-3.7-0.7c-1.6,0-3.2,0.4-4.6,1.1l-32.4,17c-2.6,1.4-4.4,3.8-5.1,6.6c-0.6,2.9,0,5.8,1.7,8.2l20,26.7&#10;&#9;&#9;&#9;c2.1-1,4.2-1.8,6.5-2.4c1.5-0.3,3,1,2.7,2.4c1.1,0.3,2,1.5,1.7,2.7c-0.1,0.5-0.3,1-0.4,1.4c0.2,0.3,0.4,0.6,0.4,0.9&#10;&#9;&#9;&#9;c1,0.2,1.9,1,1.8,2.1c0,0.5-0.1,1.1-0.2,1.6c0.5,0.1,0.9,0.2,1.2,0.5c1.1-0.6,2.5-0.1,3,1c2.9-3.4,4.1-8.4,5.9-12.3&#10;&#9;&#9;&#9;c1.1-2.4,4.3-0.5,3.9,1.7c-0.4,2.9-1.3,5.6-2.2,8.2c0.1,0,0.2-0.1,0.3-0.1c0.3-0.1,0.6-0.1,0.9,0c0.4-0.4,0.8-0.7,1.3-1&#10;&#9;&#9;&#9;c1.4-0.8,2.7,0.1,3.1,1.4l22.5-17.8C503.8,220.3,505.1,216.5,504.4,212.8z" style="fill: rgb(148, 142, 136);"/>
		<path class="st5" d="M465.2,257.6c-0.8,0-1.7-0.1-2.6-0.2c-5.2-0.7-9.9-3.4-13.1-7.6l-29-38.6c-3.4-4.6-4.7-10.4-3.4-16&#10;&#9;&#9;&#9;c1.3-5.6,4.9-10.3,10-12.9l32.4-17c5.1-2.7,11-2.9,16.3-0.8l21.1,8.6c6,2.4,10.4,7.7,11.7,14.1l4.9,23.7c1.5,7.3-1.2,14.6-7,19.2&#10;&#9;&#9;&#9;l-29.5,23.3C473.7,256.1,469.5,257.6,465.2,257.6z M468.6,168.1c-2.3,0-4.6,0.6-6.7,1.6l-32.4,17c-3.8,2-6.5,5.5-7.4,9.6&#10;&#9;&#9;&#9;s0,8.5,2.5,11.9l29,38.6c2.4,3.1,5.8,5.2,9.7,5.7c3.9,0.5,7.7-0.6,10.8-3l29.5-23.3c4.3-3.4,6.3-8.9,5.2-14.3l-4.9-23.7&#10;&#9;&#9;&#9;c-1-4.7-4.2-8.6-8.7-10.5l-21.1-8.6C472.3,168.4,470.4,168.1,468.6,168.1z M428.3,184.5L428.3,184.5L428.3,184.5z" style="fill: rgb(35, 31, 32);"/>
	</g>
	<g>
		<path class="st2" d="M520.7,268.6l16.2-11.1c7.4-5.1,17.6-3.5,23.1,3.7l13.9,18.2c3.4,4.4,4.4,10.1,2.7,15.4l-8.3,26.3&#10;&#9;&#9;&#9;c-2.5,7.8-10.1,12.8-18.3,11.7l-21.8-2.7c-8.5-1.1-14.9-8.3-14.9-16.8v-30.6C513.3,277,516.1,271.7,520.7,268.6z" style="fill: rgb(133, 128, 122);"/>
		<path class="st4" d="M568.3,283.5l-13.9-18.2c-0.6-0.8-1.3-1.5-2.1-2c-0.2,0.3-0.6,0.5-1,0.7c-3.2,1.1-7.2,2.3-9,5.3&#10;&#9;&#9;&#9;c-0.3,0.4-0.6,0.7-1,0.9c-0.2,0.8-0.4,1.5-0.7,2.3c-0.6,2-2.9,1.9-3.9,0.5c-0.3,0.6-0.6,1.2-0.8,1.9c-0.6,1.4-2.1,1.3-3.1,0.6&#10;&#9;&#9;&#9;c-0.3,0.8-0.6,1.5-0.9,2.3c-0.7,1.6-2.5,1.2-3.5,0.2c-0.2,0.4-0.4,0.8-0.7,1.2c-0.8,1.3-3.2,1.4-3.8-0.2c-0.6,0.9-1.2,1.8-1.7,2.8&#10;&#9;&#9;&#9;c-0.4,0.8-1.2,1.1-1.9,1.1v30.4c0,4.4,2.9,8.2,7,9.5c0.8-2.4,1.9-4.3,3.5-6.3c1.2-1.5,3.7-0.2,3.7,1.5c0,0.4,0,0.8-0.1,1.2&#10;&#9;&#9;&#9;c1.1-0.5,2.6,0.2,3,1.4c0.1,0.4,0.2,0.8,0.3,1.2c0.9-1,2.4-0.9,3.2,0.1c0.3-0.3,0.6-0.7,0.8-1c1-1.2,2.8-0.6,3.5,0.6&#10;&#9;&#9;&#9;c0.2-0.3,0.3-0.5,0.5-0.8c0.8-1.1,2.6-0.7,3.3,0.3c0,0,0,0,0,0c1.1-1.2,3.2-0.5,3.6,0.9c0,0,0,0.1,0,0.1c1-0.7,2.4-0.7,3.1,0.6&#10;&#9;&#9;&#9;c0.2,0.4,0.4,0.8,0.7,1.2c3.6-3.6,4.3-10.3,5.7-14.8c0.4-1.3,1.8-1.7,2.9-1.4l4.7-14.9C570.9,289.5,570.3,286.1,568.3,283.5z" style="fill: rgb(148, 142, 136);"/>
		<path class="st5" d="M552.2,335.4c-0.8,0-1.6,0-2.4-0.2l-21.8-2.7c-9.7-1.2-17-9.5-17-19.3v-30.6c0-6.4,3.2-12.4,8.4-16l16.2-11.1&#10;&#9;&#9;&#9;c8.5-5.9,20.2-4,26.5,4.2l13.9,18.2c3.8,5,5,11.6,3.1,17.7l-8.3,26.3C568.1,329.9,560.6,335.4,552.2,335.4z M546.5,257&#10;&#9;&#9;&#9;c-2.8,0-5.7,0.8-8.2,2.5l-16.2,11.1c-3.9,2.7-6.3,7.1-6.3,11.9v30.6c0,7.3,5.4,13.4,12.7,14.3l21.8,2.7c6.9,0.9,13.5-3.3,15.6-10&#10;&#9;&#9;&#9;l8.3-26.3c1.4-4.5,0.5-9.4-2.3-13.1l-13.9-18.2C555.1,258.9,550.8,257,546.5,257z M520.7,268.6L520.7,268.6L520.7,268.6z" style="fill: rgb(35, 31, 32);"/>
	</g>
	<g>
		<path class="st2" d="M538.8,371.8l32.2-11.6c5.1-1.8,10.8-1.1,15.3,2l13.9,9.5c5.7,3.9,8.5,10.9,7,17.7l-6,26.9&#10;&#9;&#9;&#9;c-1.7,7.8-8.6,13.3-16.5,13.3h-27.9c-6.5,0-12.4-3.7-15.2-9.5l-12.3-24.9C524.9,386.2,529.3,375.2,538.8,371.8z" style="fill: rgb(133, 128, 122);"/>
		<path class="st4" d="M563.2,417.3c0.7-1.7,3.8-2.3,4.2,0c0,0,0,0,0,0.1c0,0,0-0.1,0.1-0.1c1-1.4,3.5-1.5,3.9,0.5&#10;&#9;&#9;&#9;c0.2,0.8,0.3,1.5,0.6,2.2c0.3-0.3,0.6-0.6,0.9-0.9c0.7-0.7,2-0.8,2.8-0.2c0.2-0.4,0.4-0.7,0.6-1.1c0.8-1.4,3.1-1.4,3.8,0.1&#10;&#9;&#9;&#9;c0.7-0.3,1.5-0.2,2.1,0.5c0.1,0.1,0.2,0.2,0.3,0.3c6.3-5.5,8.9-14.8,11.6-22.4c0.5-1.4,1.7-1.7,2.7-1.4c0.1-0.2,0.2-0.4,0.3-0.6&#10;&#9;&#9;&#9;c0.5-1.1,1.5-1.3,2.3-1l1.2-5.4c0.9-4-0.7-8.1-4.1-10.4l-13.9-9.5c-1.7-1.1-3.6-1.7-5.6-1.7c-1.1,0-2.3,0.2-3.4,0.6l-32.2,11.6&#10;&#9;&#9;&#9;c-2.7,1-4.8,3-5.9,5.6c-1.1,2.7-1,5.6,0.3,8.1l12.3,24.9c1.7,3.4,5.1,5.6,8.9,5.6h4.4C561.9,420.8,562.5,419,563.2,417.3z" style="fill: rgb(148, 142, 136);"/>
		<path class="st4" d="M594.1,414c-2.1,4.1-5.1,6.2-8.3,8.5c4.2-0.5,7.6-3.5,8.6-7.7l0.6-2.9C594.8,412.6,594.5,413.3,594.1,414z" style="fill: rgb(148, 142, 136);"/>
		<path class="st5" d="M584.7,432.1h-27.9c-7.5,0-14.1-4.2-17.4-10.9l-12.3-24.9c-2.4-5-2.7-10.8-0.6-15.9s6.3-9.1,11.5-11&#10;&#9;&#9;&#9;l32.2-11.6c5.9-2.1,12.4-1.3,17.6,2.3l13.9,9.5c6.6,4.5,9.7,12.5,8,20.3l-6,26.9C601.7,425.8,593.9,432.1,584.7,432.1z&#10;&#9;&#9;&#9; M576.8,361.8c-1.6,0-3.3,0.3-4.9,0.8l-32.2,11.6c-3.9,1.4-7,4.4-8.5,8.2c-1.5,3.8-1.4,8.1,0.4,11.8l12.3,24.9&#10;&#9;&#9;&#9;c2.5,5,7.4,8.1,13,8.1h27.9c6.8,0,12.6-4.7,14.1-11.3l6-26.9c1.3-5.8-1-11.7-5.9-15.1l-13.9-9.5&#10;&#9;&#9;&#9;C582.5,362.6,579.7,361.8,576.8,361.8z M538.8,371.8L538.8,371.8L538.8,371.8z" style="fill: rgb(35, 31, 32);"/>
	</g>
</g>




</svg>